<svg width="24" height="24" viewBox="0 0 24 24" fill="none" xmlns="http://www.w3.org/2000/svg">
<path d="M8 17C6.9 17 6.01 17.9 6.01 19C6.01 20.1 6.9 21 8 21C9.1 21 10 20.1 10 19C10 17.9 9.1 17 8 17ZM2 1V3H4L7.6 10.59L6.25 13.04C6.09 13.32 6 13.65 6 14C6 15.1 6.9 16 8 16H20V14H8.42C8.28 14 8.17 13.89 8.17 13.75L8.2 13.63L9.1 12H16.55C17.3 12 17.96 11.59 18.3 10.97L21.88 4.48C21.96 4.34 22 4.17 22 4C22 3.45 21.55 3 21 3H6.21L5.27 1H2ZM18 17C16.9 17 16.01 17.9 16.01 19C16.01 20.1 16.9 21 18 21C19.1 21 20 20.1 20 19C20 17.9 19.1 17 18 17Z" fill="black"/>
</svg>
